# xmcd
#
# Track frame offsets: 
#        150
#        14752
#        29760
#        43927
#        58622
#        73015
#        89157
#        103917
#        119460
#        134715
#        151022
#        164872
#
# Disc length: 2409 seconds
#
# Revision: 2
# Processed by: cddbd v1.5.1PL2 Copyright (c) Steve Scherf et al.
# Submitted via: ExactAudioCopy v0.95b3
#
DISCID=be09670c
DTITLE=Various Artist - Rembetiki Istoria (1925-55) No 3
DYEAR=1900
DGENRE=Greek
TTITLE0=тсаоусайгс мимоу тситсамгс/жалпяийес
TTITLE1=лосвомас стеккайгс/пяим то ваяала
TTITLE2=йеяолутгс лпеккоу стеккайгс/сатяаписса
TTITLE3=йяеоуфгс цеыяцайопоукоу/гкиобасикела сысто
TTITLE4=лосвомас стеккайгс/пеяаслема неваслема
TTITLE5=лпеккоу/баяиа лесамувта
TTITLE6=васйик тситсамгс/пакиысе то саййайи лоу
TTITLE7=лгтсайгс цеыяцайопоукоу/йапгкио
TTITLE8=тситсамгс мимоу/жтывопаидо
TTITLE9=мимоу тситсамгс/паинте лпоуфоуйиа
TTITLE10=цеыяцайопоукоу виытгс/ьико цафи
TTITLE11=йафамтфидгс/де хекы то йайо соу
EXTD=
EXTT0=
EXTT1=
EXTT2=
EXTT3=
EXTT4=
EXTT5=
EXTT6=
EXTT7=
EXTT8=
EXTT9=
EXTT10=
EXTT11=
PLAYORDER=
